<svg xmlns="http://www.w3.org/2000/svg" viewBox="0 0 64 64">
  <rect width="64" height="64" rx="15" fill="#d3002b"/>
  <g fill="#fffcf0">
    <circle cx="32" cy="8" r="3"/>
    <circle cx="49" cy="15" r="3"/>
    <circle cx="56" cy="32" r="3"/>
    <circle cx="49" cy="49" r="3"/>
    <circle cx="32" cy="56" r="3"/>
    <circle cx="15" cy="49" r="3"/>
    <circle cx="8" cy="32" r="3"/>
    <circle cx="15" cy="15" r="3"/>
  </g>
  <path d="M24.5 30.5h15L32 47z" fill="#f2b65a"/>
  <path d="M27 33.5l8.6 5.4M29.6 30.8l7.8 4.9M36.8 33.2l-8.2 5.1M34.2 30.8l-7.6 4.7" stroke="#c7822b" stroke-width="1.1" stroke-linecap="round"/>
  <path d="M22.5 27a9.5 9.5 0 0 1 19 0c0 2.2-1.2 3.4-2.4 3.4-1.3 0-1.4 2.6-2.8 2.6s-1.4-2.6-2.9-2.6-1.4 3.6-2.9 3.6-1.5-3.6-2.9-3.6-1.5 2-2.8 2c-1.5 0-3.3-1.6-3.3-5.4z" fill="#fffcf0"/>
  <circle cx="35.5" cy="18.5" r="2.4" fill="#ff5061"/>
</svg>
